<?xml version="1.0" standalone="no"?>
<!DOCTYPE svg PUBLIC "-//W3C//DTD SVG 20010904//EN"
 "http://www.w3.org/TR/2001/REC-SVG-20010904/DTD/svg10.dtd">
<svg version="1.0" xmlns="http://www.w3.org/2000/svg"
 width="1280.000000pt" height="902.000000pt" viewBox="0 0 1280.000000 902.000000"
 preserveAspectRatio="xMidYMid meet">
<metadata>
Created by potrace 1.15, written by Peter Selinger 2001-2017
</metadata>
<g transform="translate(0.000000,902.000000) scale(0.100000,-0.100000)"
fill="#000000" stroke="none">
<path d="M7178 9010 c-10 -6 -18 -17 -18 -24 0 -8 -16 -17 -36 -21 -54 -10
-197 -90 -222 -125 -13 -17 -43 -40 -68 -51 -31 -15 -64 -45 -105 -96 -43 -52
-70 -76 -90 -80 -17 -3 -52 -29 -84 -60 -49 -50 -55 -59 -55 -98 0 -56 -27
-90 -79 -99 -23 -3 -48 -16 -62 -32 -13 -14 -32 -34 -42 -43 -29 -30 -37 -79
-37 -234 l0 -148 55 -57 c30 -31 55 -65 55 -74 0 -10 7 -18 16 -18 8 0 12 -4
9 -10 -4 -6 24 -10 77 -10 78 0 87 -2 139 -34 43 -27 62 -48 89 -98 33 -58 34
-66 23 -98 -15 -45 -17 -244 -2 -273 45 -87 119 -90 217 -10 35 29 46 33 53
22 5 -8 9 -20 9 -26 0 -19 45 -44 65 -37 13 5 16 4 11 -4 -9 -14 37 -62 58
-62 21 0 56 -71 56 -113 0 -45 28 -136 52 -170 11 -15 36 -36 56 -47 23 -11
30 -19 19 -20 -9 0 -36 14 -59 30 l-41 30 -281 0 c-155 0 -324 5 -376 10 -206
22 -490 83 -535 116 -84 61 -195 112 -315 143 -98 26 -336 61 -415 61 -85 0
-117 13 -155 66 -41 58 -350 337 -397 359 -28 14 -40 15 -52 6 -32 -23 -68
-33 -161 -47 -52 -8 -112 -18 -132 -21 -23 -3 -38 -11 -38 -19 0 -9 -11 -14
-30 -14 -20 0 -30 -5 -30 -15 0 -8 -7 -15 -16 -15 -10 0 -14 -6 -11 -14 8 -20
-157 -178 -218 -209 -42 -21 -56 -35 -77 -79 -40 -80 -55 -164 -38 -222 15
-55 70 -142 127 -203 38 -41 43 -43 96 -43 44 0 57 3 57 15 0 8 7 15 15 15 8
0 15 6 15 13 0 7 7 23 16 35 l16 23 40 -37 c22 -20 60 -45 84 -56 98 -43 328
-76 555 -79 l106 -1 7 -152 c3 -83 10 -189 15 -236 6 -47 10 -166 11 -265 2
-262 19 -297 160 -315 41 -5 190 -10 331 -10 221 0 263 2 310 18 143 48 154
49 368 14 108 -18 232 -32 276 -32 73 0 183 -13 227 -26 10 -3 36 -21 59 -40
100 -83 107 -85 337 -94 114 -5 215 -12 225 -16 18 -6 19 -19 15 -173 -4 -151
-7 -174 -34 -254 -34 -103 -62 -135 -147 -176 -63 -30 -259 -86 -397 -115
-218 -44 -483 -51 -915 -22 -137 9 -360 16 -495 16 -216 0 -252 3 -308 20 -35
11 -119 27 -185 36 -67 8 -201 27 -297 41 -121 18 -246 28 -405 33 -126 5
-291 13 -365 19 -74 6 -299 18 -500 26 -201 8 -529 27 -730 41 -201 14 -387
23 -415 20 -89 -9 -130 -18 -147 -33 -14 -12 -37 -14 -110 -11 -78 4 -117 13
-243 56 -219 74 -344 95 -728 124 -157 11 -170 11 -178 -5 -9 -15 -29 -17
-157 -17 -113 1 -151 4 -166 15 -11 8 -33 15 -49 15 -22 0 -42 13 -80 51 -27
28 -60 55 -73 59 -14 6 -24 18 -24 30 0 29 -36 48 -106 56 -53 5 -64 4 -78
-12 -9 -11 -34 -40 -56 -65 l-40 -46 0 -116 c0 -219 31 -422 84 -540 32 -72
98 -144 146 -158 42 -13 194 -3 185 11 -10 17 40 40 85 40 25 0 111 -12 190
-26 125 -22 166 -25 300 -22 167 4 161 3 283 76 l55 32 53 -24 c88 -40 322
-83 496 -90 88 -4 175 -14 205 -22 29 -9 77 -21 106 -27 50 -11 52 -12 52 -45
0 -18 -5 -42 -10 -53 -9 -16 -7 -19 15 -19 23 0 31 -12 75 -103 58 -121 107
-176 227 -253 67 -44 83 -59 93 -91 7 -21 19 -46 27 -55 19 -21 96 -48 137
-48 17 0 48 -11 68 -25 20 -14 48 -25 61 -25 14 0 30 -7 37 -15 7 -8 27 -15
44 -15 17 -1 42 -7 56 -15 14 -8 43 -14 64 -15 22 0 66 -7 98 -16 55 -16 72
-16 246 0 103 9 257 28 342 41 140 22 283 38 470 52 44 3 114 -4 215 -21 83
-14 219 -32 304 -41 148 -15 245 -30 260 -39 4 -3 47 -7 95 -10 48 -3 91 -8
95 -11 5 -2 57 -9 117 -15 114 -10 270 -49 487 -119 70 -22 136 -41 146 -41
10 0 31 -10 46 -22 16 -12 76 -35 134 -50 515 -137 532 -141 666 -148 84 -5
146 -13 175 -25 25 -9 99 -23 165 -31 66 -7 141 -16 166 -20 l47 -6 11 -72 c6
-39 18 -115 26 -168 46 -301 178 -444 437 -473 52 -6 62 -3 145 38 63 32 111
48 168 57 66 10 89 19 130 50 28 20 80 53 117 73 l66 37 -14 60 c-22 95 -59
150 -102 150 -14 0 -51 38 -52 53 0 13 45 8 66 -8 10 -8 38 -15 62 -15 30 0
42 -4 42 -15 0 -12 13 -15 58 -15 49 0 62 -4 82 -25 22 -23 30 -25 119 -25 69
0 126 -7 201 -25 57 -14 132 -28 165 -32 33 -3 70 -12 82 -19 12 -8 33 -14 47
-14 14 0 28 -4 31 -10 3 -5 14 -10 23 -10 9 0 64 -32 122 -71 189 -127 403
-249 463 -263 61 -15 89 -68 43 -86 -13 -5 -29 -21 -35 -37 -32 -76 -94 -144
-395 -427 -87 -83 -176 -173 -197 -201 -35 -47 -39 -58 -39 -111 0 -36 6 -68
15 -81 16 -22 9 -33 -28 -46 -44 -16 -331 -68 -422 -77 -152 -15 -315 -42
-315 -51 0 -5 -6 -9 -14 -9 -8 0 -31 -9 -50 -21 -46 -27 -109 -44 -278 -74
-75 -13 -215 -47 -310 -74 -96 -28 -193 -51 -216 -51 -24 0 -75 -6 -115 -14
-40 -8 -90 -17 -112 -21 -73 -12 -99 -42 -125 -143 -6 -24 -14 -50 -17 -58 -4
-10 2 -14 20 -14 14 0 27 -7 31 -15 3 -8 12 -15 21 -15 8 0 15 -7 15 -15 0 -9
9 -15 24 -15 22 0 23 -2 13 -25 -9 -18 -20 -25 -39 -25 -23 0 -28 -4 -28 -25
0 -35 16 -61 78 -126 44 -46 54 -63 61 -107 8 -54 30 -87 62 -97 11 -4 19 -16
19 -29 0 -15 24 -45 69 -90 105 -101 152 -114 275 -76 115 36 189 75 269 144
43 36 93 73 110 82 18 9 64 38 102 65 39 26 117 66 175 89 58 23 179 73 270
112 262 111 272 115 325 128 81 21 149 55 266 131 77 50 124 75 155 79 l44 7
0 -35 0 -35 108 5 c128 6 212 33 238 77 21 36 90 81 124 81 39 0 140 34 140
48 0 9 34 12 138 12 91 1 150 6 176 15 22 8 43 12 47 10 4 -3 23 2 43 10 46
19 96 19 124 -1 17 -11 22 -25 22 -57 0 -50 22 -87 53 -87 12 0 37 -9 55 -20
31 -19 32 -19 32 -1 0 11 9 21 23 25 17 4 29 25 55 93 17 48 37 114 43 146 8
36 17 57 25 57 9 0 14 11 14 28 0 20 7 30 28 39 15 6 95 40 177 76 83 36 204
88 270 115 195 81 237 102 292 143 29 21 59 39 67 39 8 0 19 6 23 14 8 12 281
107 351 121 23 5 32 12 32 26 0 20 33 59 50 59 6 0 10 5 10 11 0 6 18 29 40
50 22 22 40 47 40 58 0 11 9 21 23 24 12 4 27 16 32 29 7 17 29 29 79 45 85
27 116 54 116 101 0 22 7 40 21 51 32 25 50 112 56 260 5 117 4 135 -11 143
-9 5 -16 20 -16 32 0 13 -7 26 -15 30 -8 3 -15 12 -15 20 0 8 -10 27 -23 43
-12 15 -29 42 -37 58 -16 32 -342 371 -525 545 -301 286 -357 350 -307 350 14
0 17 11 19 65 2 35 7 83 13 107 5 24 10 79 10 123 0 77 -1 80 -28 93 -15 8
-65 17 -112 21 -47 5 -97 14 -112 21 -16 8 -45 42 -69 82 l-42 69 8 102 c9
118 8 127 -4 307 -12 173 -21 231 -36 250 -7 9 -15 61 -19 121 -10 170 -53
479 -75 541 -11 31 -31 133 -46 225 -35 223 -57 304 -125 453 -72 159 -76 171
-91 253 -11 68 -17 79 -106 200 -17 24 -56 89 -86 144 -31 56 -85 142 -121
192 -57 78 -66 97 -66 133 0 37 -5 48 -40 78 -23 21 -40 44 -40 57 0 13 -8 24
-20 28 -11 3 -60 52 -108 108 -132 151 -261 269 -419 384 -132 95 -149 105
-263 142 -205 68 -567 131 -749 131 -212 0 -408 35 -513 90 -21 11 -57 20 -81
20 -41 0 -44 2 -44 25 0 17 -18 42 -57 79 -31 30 -56 63 -56 73 0 24 -19 43
-42 43 -10 0 -18 4 -18 10 0 15 -33 50 -42 44 -4 -3 -8 2 -8 10 0 9 -7 16 -15
16 -8 0 -15 7 -15 15 0 8 -8 15 -17 15 -10 0 -51 40 -93 92 -152 185 -281 287
-415 324 -73 21 -498 32 -527 14z"/>
</g>
</svg>
